<?xml version="1.0" encoding="UTF-8"?>
<!DOCTYPE svg PUBLIC "-//W3C//DTD SVG 1.1//EN" "http://www.w3.org/Graphics/SVG/1.1/DTD/svg11.dtd">
<svg xmlns="http://www.w3.org/2000/svg" version="1.1" width="500px" height="500px" style="shape-rendering:geometricPrecision; text-rendering:geometricPrecision; image-rendering:optimizeQuality; fill-rule:evenodd; clip-rule:evenodd" xmlns:xlink="http://www.w3.org/1999/xlink">
<g><path style="opacity:0.533" fill="#9b9b92" d="M 208.5,191.5 C 201.606,189.655 194.606,188.321 187.5,187.5C 187.949,192.863 188.616,198.196 189.5,203.5C 188.5,203.5 187.5,203.5 186.5,203.5C 186.5,203.167 186.5,202.833 186.5,202.5C 187.239,202.631 187.906,202.464 188.5,202C 187.225,197.424 186.225,192.758 185.5,188C 185.645,187.228 185.978,186.561 186.5,186C 194.326,186.113 201.659,187.947 208.5,191.5 Z"/></g>
<g><path style="opacity:0.459" fill="#94968b" d="M 313.5,187.5 C 309.767,189.411 305.767,190.744 301.5,191.5C 305.085,189.194 309.085,187.861 313.5,187.5 Z"/></g>
<g><path style="opacity:0.125" fill="#bcbcb1" d="M 325.5,203.5 C 325.5,204.167 325.167,204.5 324.5,204.5C 323.861,203.903 323.528,203.07 323.5,202C 324.657,196.89 325.324,191.723 325.5,186.5C 322.833,186.5 320.167,186.5 317.5,186.5C 319.684,185.734 322.018,185.067 324.5,184.5C 326.291,184.962 327.291,186.129 327.5,188C 326.505,193.131 325.838,198.298 325.5,203.5 Z"/></g>
<g><path style="opacity:0.949" fill="#4e5955" d="M 208.5,191.5 C 212.787,192.648 216.787,194.315 220.5,196.5C 217.672,195.503 215.005,195.503 212.5,196.5C 211.209,196.737 210.209,196.404 209.5,195.5C 209.414,194.504 209.748,193.671 210.5,193C 209.584,192.722 208.918,192.222 208.5,191.5 Z"/></g>
<g><path style="opacity:0.702" fill="#727970" d="M 301.5,191.5 C 299.824,193.834 297.491,194.834 294.5,194.5C 296.509,192.935 298.843,191.935 301.5,191.5 Z"/></g>
<g><path style="opacity:0.451" fill="#94988e" d="M 294.5,194.5 C 294.027,195.906 293.027,196.573 291.5,196.5C 291.973,195.094 292.973,194.427 294.5,194.5 Z"/></g>
<g><path style="opacity:0.075" fill="#d2d4bb" d="M 175.5,200.5 C 175.011,201.995 174.345,203.329 173.5,204.5C 173.157,202.517 173.824,201.183 175.5,200.5 Z"/></g>
<g><path style="opacity:1" fill="#293a3a" d="M 338.5,205.5 C 337.849,204.909 337.182,204.243 336.5,203.5C 332.242,203.607 328.242,204.94 324.5,207.5C 324.5,206.5 324.5,205.5 324.5,204.5C 325.167,204.5 325.5,204.167 325.5,203.5C 328.884,202.37 332.218,201.037 335.5,199.5C 337.978,200.722 338.978,202.722 338.5,205.5 Z"/></g>
<g><path style="opacity:1" fill="#192b32" d="M 208.5,191.5 C 208.918,192.222 209.584,192.722 210.5,193C 209.748,193.671 209.414,194.504 209.5,195.5C 203.448,192.817 197.114,191.15 190.5,190.5C 191.086,194.854 191.752,199.188 192.5,203.5C 192.025,206.082 192.692,208.082 194.5,209.5C 200.181,210.67 205.848,212.003 211.5,213.5C 210.469,214.249 209.302,214.915 208,215.5C 204.506,213.623 200.673,212.956 196.5,213.5C 188.799,212.746 181.132,211.746 173.5,210.5C 173.918,209.778 174.584,209.278 175.5,209C 174.417,202.602 176.75,201.102 182.5,204.5C 183.736,203.754 185.07,203.421 186.5,203.5C 187.5,203.5 188.5,203.5 189.5,203.5C 188.616,198.196 187.949,192.863 187.5,187.5C 194.606,188.321 201.606,189.655 208.5,191.5 Z"/></g>
<g><path style="opacity:0.722" fill="#53564f" d="M 173.5,204.5 C 173.586,205.496 173.252,206.329 172.5,207C 169.518,207.498 166.518,207.665 163.5,207.5C 162.833,207.5 162.167,207.5 161.5,207.5C 163.202,205.517 165.368,205.184 168,206.5C 170.178,206.605 172.012,205.939 173.5,204.5 Z"/></g>
<g><path style="opacity:1" fill="#959e9f" d="M 192.5,203.5 C 193.285,205.374 193.952,207.374 194.5,209.5C 192.692,208.082 192.025,206.082 192.5,203.5 Z"/></g>
<g><path style="opacity:1" fill="#f6f7f5" d="M 173.5,210.5 C 181.132,211.746 188.799,212.746 196.5,213.5C 217.675,217.418 235.675,227.085 250.5,242.5C 250.5,246.833 250.5,251.167 250.5,255.5C 250.833,274.512 250.5,293.512 249.5,312.5C 247.736,310.722 245.736,309.389 243.5,308.5C 231.983,298.576 218.65,292.076 203.5,289C 191.536,287.724 179.536,287.224 167.5,287.5C 167.5,261.833 167.5,236.167 167.5,210.5C 169.5,210.5 171.5,210.5 173.5,210.5 Z"/></g>
<g><path style="opacity:1" fill="#f7f7f5" d="M 332.5,212.5 C 335.777,212.216 338.943,212.549 342,213.5C 342.5,238.164 342.667,262.831 342.5,287.5C 337.968,287.182 333.634,287.515 329.5,288.5C 308.902,290.47 290.236,297.47 273.5,309.5C 272.5,309.5 271.5,309.5 270.5,309.5C 270.5,286.833 270.5,264.167 270.5,241.5C 277.02,234.231 284.686,228.398 293.5,224C 306.107,218.766 319.107,214.932 332.5,212.5 Z"/></g>
<g><path style="opacity:0.094" fill="#dcdcd5" d="M 237.5,208.5 C 242.556,211.223 246.223,215.223 248.5,220.5C 244.862,216.526 241.195,212.526 237.5,208.5 Z"/></g>
<g><path style="opacity:1" fill="#f3f4f2" d="M 209.5,195.5 C 210.209,196.404 211.209,196.737 212.5,196.5C 226.157,202.314 237.323,211.314 246,223.5C 249.529,228.774 251.863,234.441 253,240.5C 241.927,227.373 228.094,218.373 211.5,213.5C 205.848,212.003 200.181,210.67 194.5,209.5C 193.952,207.374 193.285,205.374 192.5,203.5C 191.752,199.188 191.086,194.854 190.5,190.5C 197.114,191.15 203.448,192.817 209.5,195.5 Z"/></g>
<g><path style="opacity:1" fill="#f4f5f3" d="M 321.5,197.5 C 320.437,201.639 319.77,205.972 319.5,210.5C 296.91,215.618 277.91,226.618 262.5,243.5C 261.662,243.158 261.328,242.492 261.5,241.5C 263.455,228.424 269.455,217.59 279.5,209C 291.996,198.552 306.33,192.052 322.5,189.5C 322.167,192.167 321.833,194.833 321.5,197.5 Z"/></g>
<g><path style="opacity:0.247" fill="#bcbbb2" d="M 275.5,208.5 C 272.061,213.059 268.394,217.392 264.5,221.5C 265.809,218.222 267.642,215.222 270,212.5C 271.451,210.536 273.284,209.203 275.5,208.5 Z"/></g>
<g><path style="opacity:1" fill="#1c3135" d="M 317.5,186.5 C 320.167,186.5 322.833,186.5 325.5,186.5C 325.324,191.723 324.657,196.89 323.5,202C 323.528,203.07 323.861,203.903 324.5,204.5C 324.5,205.5 324.5,206.5 324.5,207.5C 328.242,204.94 332.242,203.607 336.5,203.5C 337.182,204.243 337.849,204.909 338.5,205.5C 341.941,206.097 345.275,206.763 348.5,207.5C 345.482,207.335 342.482,207.502 339.5,208C 341.878,208.974 341.544,209.641 338.5,210C 340.382,210.198 342.048,210.698 343.5,211.5C 339.629,211.185 335.962,211.518 332.5,212.5C 319.107,214.932 306.107,218.766 293.5,224C 284.686,228.398 277.02,234.231 270.5,241.5C 269.167,265.167 269.167,288.833 270.5,312.5C 270.328,313.492 270.662,314.158 271.5,314.5C 268.764,319.927 264.264,321.927 258,320.5C 251.57,321.529 246.404,319.529 242.5,314.5C 242.938,314.565 243.272,314.399 243.5,314C 242.833,312.667 241.833,311.667 240.5,311C 241.078,309.583 242.078,308.75 243.5,308.5C 245.736,309.389 247.736,310.722 249.5,312.5C 250.5,293.512 250.833,274.512 250.5,255.5C 251.332,274.996 251.832,294.662 252,314.5C 252.167,291.16 252.667,267.826 253.5,244.5C 254.107,244.624 254.44,244.957 254.5,245.5C 253.171,268.337 253.171,291.337 254.5,314.5C 259.297,316.195 263.631,315.528 267.5,312.5C 268.498,289.673 268.831,266.673 268.5,243.5C 266.5,243.5 264.5,243.5 262.5,243.5C 277.91,226.618 296.91,215.618 319.5,210.5C 321.177,206.455 321.844,202.122 321.5,197.5C 321.833,194.833 322.167,192.167 322.5,189.5C 306.33,192.052 291.996,198.552 279.5,209C 269.455,217.59 263.455,228.424 261.5,241.5C 260.883,241.611 260.383,241.944 260,242.5C 259.506,240.866 259.34,239.199 259.5,237.5C 260.5,233.5 261.5,229.5 262.5,225.5C 264.176,224.817 264.843,223.483 264.5,221.5C 268.394,217.392 272.061,213.059 275.5,208.5C 279.979,203.353 285.313,199.353 291.5,196.5C 293.027,196.573 294.027,195.906 294.5,194.5C 297.491,194.834 299.824,193.834 301.5,191.5C 305.767,190.744 309.767,189.411 313.5,187.5C 314.568,186.566 315.901,186.232 317.5,186.5 Z"/></g>
<g><path style="opacity:1" fill="#5a696d" d="M 321.5,197.5 C 321.844,202.122 321.177,206.455 319.5,210.5C 319.77,205.972 320.437,201.639 321.5,197.5 Z"/></g>
<g><path style="opacity:0.702" fill="#848c83" d="M 264.5,221.5 C 264.843,223.483 264.176,224.817 262.5,225.5C 262.66,223.847 263.326,222.514 264.5,221.5 Z"/></g>
<g><path style="opacity:1" fill="#293a3d" d="M 220.5,196.5 C 227.052,199.273 232.719,203.273 237.5,208.5C 241.195,212.526 244.862,216.526 248.5,220.5C 253.327,226.975 255.994,234.309 256.5,242.5C 255.732,241.737 255.232,240.737 255,239.5C 254.517,240.448 254.351,241.448 254.5,242.5C 252.861,242.074 251.528,242.074 250.5,242.5C 235.675,227.085 217.675,217.418 196.5,213.5C 200.673,212.956 204.506,213.623 208,215.5C 209.302,214.915 210.469,214.249 211.5,213.5C 228.094,218.373 241.927,227.373 253,240.5C 251.863,234.441 249.529,228.774 246,223.5C 237.323,211.314 226.157,202.314 212.5,196.5C 215.005,195.503 217.672,195.503 220.5,196.5 Z"/></g>
<g><path style="opacity:0.118" fill="#bfcac3" d="M 262.5,225.5 C 261.5,229.5 260.5,233.5 259.5,237.5C 258.835,239.369 258.169,241.369 257.5,243.5C 256.893,243.376 256.56,243.043 256.5,242.5C 257.481,238.252 258.648,233.919 260,229.5C 260.608,227.934 261.442,226.6 262.5,225.5 Z"/></g>
<g><path style="opacity:0.653" fill="#77857e" d="M 348.5,207.5 C 349.117,207.611 349.617,207.944 350,208.5C 350.667,242.5 350.667,276.5 350,310.5C 349.768,311.737 349.268,312.737 348.5,313.5C 348.5,278.167 348.5,242.833 348.5,207.5 Z"/></g>
<g><path style="opacity:1" fill="#184f5a" d="M 254.5,245.5 C 258.787,246.695 263.12,246.695 267.5,245.5C 267.5,267.833 267.5,290.167 267.5,312.5C 263.631,315.528 259.297,316.195 254.5,314.5C 253.171,291.337 253.171,268.337 254.5,245.5 Z"/></g>
<g><path style="opacity:1" fill="#a0afb0" d="M 332.5,212.5 C 335.962,211.518 339.629,211.185 343.5,211.5C 343.5,237.167 343.5,262.833 343.5,288.5C 338.833,288.5 334.167,288.5 329.5,288.5C 333.634,287.515 337.968,287.182 342.5,287.5C 342.667,262.831 342.5,238.164 342,213.5C 338.943,212.549 335.777,212.216 332.5,212.5 Z"/></g>
<g><path style="opacity:1" fill="#797e80" d="M 327.5,259.5 C 330.625,258.521 333.958,258.187 337.5,258.5C 337.5,259.833 337.5,261.167 337.5,262.5C 332.167,262.833 326.833,263.167 321.5,263.5C 326.349,262.426 331.349,261.426 336.5,260.5C 333.572,259.516 330.572,259.183 327.5,259.5 Z"/></g>
<g><path style="opacity:1" fill="#1c2a2b" d="M 327.5,259.5 C 330.572,259.183 333.572,259.516 336.5,260.5C 331.349,261.426 326.349,262.426 321.5,263.5C 306.11,265.519 291.777,270.519 278.5,278.5C 277.479,277.998 277.312,277.332 278,276.5C 292.538,265.286 309.038,259.619 327.5,259.5 Z"/></g>
<g><path style="opacity:1" fill="#082930" d="M 259.5,237.5 C 259.34,239.199 259.506,240.866 260,242.5C 260.383,241.944 260.883,241.611 261.5,241.5C 261.328,242.492 261.662,243.158 262.5,243.5C 264.5,243.5 266.5,243.5 268.5,243.5C 268.831,266.673 268.498,289.673 267.5,312.5C 267.5,290.167 267.5,267.833 267.5,245.5C 263.12,246.695 258.787,246.695 254.5,245.5C 254.44,244.957 254.107,244.624 253.5,244.5C 252.667,267.826 252.167,291.16 252,314.5C 251.832,294.662 251.332,274.996 250.5,255.5C 250.5,251.167 250.5,246.833 250.5,242.5C 251.528,242.074 252.861,242.074 254.5,242.5C 254.351,241.448 254.517,240.448 255,239.5C 255.232,240.737 255.732,241.737 256.5,242.5C 256.56,243.043 256.893,243.376 257.5,243.5C 258.169,241.369 258.835,239.369 259.5,237.5 Z"/></g>
<g><path style="opacity:1" fill="#123139" d="M 175.5,200.5 C 179.319,200.414 182.985,201.081 186.5,202.5C 186.5,202.833 186.5,203.167 186.5,203.5C 185.07,203.421 183.736,203.754 182.5,204.5C 176.75,201.102 174.417,202.602 175.5,209C 174.584,209.278 173.918,209.778 173.5,210.5C 171.5,210.5 169.5,210.5 167.5,210.5C 167.5,236.167 167.5,261.833 167.5,287.5C 166.444,288.877 165.111,289.71 163.5,290C 164,290.5 164.5,291 165,291.5C 165.667,298.833 165.667,306.167 165,313.5C 164.911,309.972 164.244,306.638 163,303.5C 162.175,271.428 162.341,239.428 163.5,207.5C 166.518,207.665 169.518,207.498 172.5,207C 173.252,206.329 173.586,205.496 173.5,204.5C 174.345,203.329 175.011,201.995 175.5,200.5 Z"/></g>
<g><path style="opacity:1" fill="#a8b4b7" d="M 270.5,241.5 C 270.5,264.167 270.5,286.833 270.5,309.5C 271.5,309.5 272.5,309.5 273.5,309.5C 272.833,310.833 271.833,311.833 270.5,312.5C 269.167,288.833 269.167,265.167 270.5,241.5 Z"/></g>
<g><path style="opacity:1" fill="#0c2c34" d="M 161.5,207.5 C 162.167,207.5 162.833,207.5 163.5,207.5C 162.341,239.428 162.175,271.428 163,303.5C 164.244,306.638 164.911,309.972 165,313.5C 165.667,306.167 165.667,298.833 165,291.5C 164.5,291 164,290.5 163.5,290C 165.111,289.71 166.444,288.877 167.5,287.5C 179.536,287.224 191.536,287.724 203.5,289C 218.65,292.076 231.983,298.576 243.5,308.5C 242.078,308.75 241.078,309.583 240.5,311C 241.833,311.667 242.833,312.667 243.5,314C 243.272,314.399 242.938,314.565 242.5,314.5C 215.122,314.816 187.789,314.483 160.5,313.5C 160.168,277.996 160.502,242.663 161.5,207.5 Z"/></g>
<g><path style="opacity:1" fill="#072a31" d="M 348.5,207.5 C 348.5,242.833 348.5,278.167 348.5,313.5C 348.5,314.167 348.167,314.5 347.5,314.5C 322.167,314.5 296.833,314.5 271.5,314.5C 270.662,314.158 270.328,313.492 270.5,312.5C 271.833,311.833 272.833,310.833 273.5,309.5C 290.236,297.47 308.902,290.47 329.5,288.5C 334.167,288.5 338.833,288.5 343.5,288.5C 343.5,262.833 343.5,237.167 343.5,211.5C 342.048,210.698 340.382,210.198 338.5,210C 341.544,209.641 341.878,208.974 339.5,208C 342.482,207.502 345.482,207.335 348.5,207.5 Z"/></g>
<g><path style="opacity:1" fill="#282e2f" d="M 164.5,317.5 C 189.836,317.333 215.169,317.5 240.5,318C 241.044,318.717 241.711,319.217 242.5,319.5C 242.489,322.001 241.822,322.168 240.5,320C 214.814,320.16 189.48,319.326 164.5,317.5 Z"/></g>
<g><path style="opacity:1" fill="#2c3534" d="M 348.5,318.5 C 350.819,318.992 352.819,319.992 354.5,321.5C 355.058,322.79 356.058,323.623 357.5,324C 329.835,324.5 302.169,324.667 274.5,324.5C 273.833,324.5 273.5,324.167 273.5,323.5C 299.502,323.667 325.502,323.5 351.5,323C 349.043,321.438 346.376,320.438 343.5,320C 321.167,319.333 298.833,319.333 276.5,320C 274.509,320.374 272.842,321.207 271.5,322.5C 269.716,323.72 268.05,323.72 266.5,322.5C 269.455,322.019 271.789,320.519 273.5,318C 298.543,317.186 323.543,317.352 348.5,318.5 Z"/></g>
<g><path style="opacity:1" fill="#c6c9c4" d="M 160.5,313.5 C 187.789,314.483 215.122,314.816 242.5,314.5C 246.404,319.529 251.57,321.529 258,320.5C 264.264,321.927 268.764,319.927 271.5,314.5C 296.833,314.5 322.167,314.5 347.5,314.5C 347.433,315.959 347.766,317.292 348.5,318.5C 323.543,317.352 298.543,317.186 273.5,318C 271.789,320.519 269.455,322.019 266.5,322.5C 260.158,322.666 253.825,322.5 247.5,322C 245.97,320.88 244.303,320.046 242.5,319.5C 241.711,319.217 241.044,318.717 240.5,318C 215.169,317.5 189.836,317.333 164.5,317.5C 162.833,317.5 161.167,317.5 159.5,317.5C 160.234,316.292 160.567,314.959 160.5,313.5 Z"/></g>
<g><path style="opacity:1" fill="#324242" d="M 273.5,323.5 C 272.508,323.672 271.842,323.338 271.5,322.5C 272.842,321.207 274.509,320.374 276.5,320C 298.833,319.333 321.167,319.333 343.5,320C 346.376,320.438 349.043,321.438 351.5,323C 325.502,323.5 299.502,323.667 273.5,323.5 Z"/></g>
<g><path style="opacity:1" fill="#3e4541" d="M 159.5,317.5 C 161.167,317.5 162.833,317.5 164.5,317.5C 189.48,319.326 214.814,320.16 240.5,320C 241.822,322.168 242.489,322.001 242.5,319.5C 244.303,320.046 245.97,320.88 247.5,322C 253.825,322.5 260.158,322.666 266.5,322.5C 268.05,323.72 269.716,323.72 271.5,322.5C 271.842,323.338 272.508,323.672 273.5,323.5C 273.5,324.167 273.833,324.5 274.5,324.5C 274.5,324.833 274.5,325.167 274.5,325.5C 262.833,326.833 251.167,326.833 239.5,325.5C 209.5,324.833 179.5,324.167 149.5,323.5C 152.566,321.11 155.9,319.11 159.5,317.5 Z"/></g>
<g><path style="opacity:0.235" fill="#bfbcb3" d="M 149.5,323.5 C 179.5,324.167 209.5,324.833 239.5,325.5C 238.5,325.5 237.5,325.5 236.5,325.5C 207.189,326.668 177.856,326.334 148.5,324.5C 148.624,323.893 148.957,323.56 149.5,323.5 Z"/></g>
<g><path style="opacity:0.233" fill="#bfbcb4" d="M 354.5,321.5 C 356.645,321.738 358.312,322.738 359.5,324.5C 356.553,325.321 353.553,325.821 350.5,326C 325.756,326.401 301.089,326.234 276.5,325.5C 275.833,325.5 275.167,325.5 274.5,325.5C 274.5,325.167 274.5,324.833 274.5,324.5C 302.169,324.667 329.835,324.5 357.5,324C 356.058,323.623 355.058,322.79 354.5,321.5 Z"/></g>
<g><path style="opacity:0.076" fill="#e8e0d1" d="M 236.5,325.5 C 237.5,325.5 238.5,325.5 239.5,325.5C 251.167,326.833 262.833,326.833 274.5,325.5C 275.167,325.5 275.833,325.5 276.5,325.5C 276.082,326.222 275.416,326.722 274.5,327C 262.833,327.667 251.167,327.667 239.5,327C 238.263,326.768 237.263,326.268 236.5,325.5 Z"/></g>
</svg>
